PathFileType	4	(X/Y/Z)	./resultDataOpenSim/trcMotMarkerGrf/sub09/qtm-13-01.trc
DataRate	CameraRate	NumFrames	NumMarkers	Units	OrigDataRate	OrigDataStartFrame	OrigNumFrames
250.000000	250.000000	7	24	m	250.000000	135	536
Frame#	Time	L.Toe.Tip			R.Toe.Tip			L.Ankle.Lat			R.Ankle.Lat			L.Ankle.Med			R.Ankle.Med			L.Heel			R.Heel			L.Knee.Lat			R.Knee.Lat			L.Knee.Med			R.Knee.Med			L.Thigh.Upper			R.Thigh.Upper			L.ASIS			R.ASIS			V.Sacral			L.Acromium			R.Acromium			C7			L.Elbow			R.Elbow			L.Wrist.Lat			R.Wrist.Lat
		X1	Y1	Z1	X2	Y2	Z2	X3	Y3	Z3	X4	Y4	Z4	X5	Y5	Z5	X6	Y6	Z6	X7	Y7	Z7	X8	Y8	Z8	X9	Y9	Z9	X10	Y10	Z10	X11	Y11	Z11	X12	Y12	Z12	X13	Y13	Z13	X14	Y14	Z14	X15	Y15	Z15	X16	Y16	Z16	X17	Y17	Z17	X18	Y18	Z18	X19	Y19	Z19	X20	Y20	Z20	X21	Y21	Z21	X22	Y22	Z22	X23	Y23	Z23	X24	Y24	Z24

135	0.536	-0.23928689	0.085251927	-0.023472464	-0.66850297	0.039570121	0.061128832	-0.39270881	0.097100263	-0.06161322	-0.81771687	0.058979072	0.086202461	-0.36975033	0.11325332	0.034869144	-0.79595359	0.098813322	-0.0020993901	-0.45113812	0.044071438	-0.0094088054	-0.88201745	0.037606368	0.029690971	-0.42442706	0.51491855	-0.086336684	-0.68370455	0.4937767	0.16840785	-0.43310156	0.50592578	0.038963189	-0.69541991	0.49020111	0.040599746	-0.60769016	0.89268243	-0.13349246	-0.6608448	0.89774445	0.23684052	-0.54176791	0.97947746	-0.066964576	-0.55043673	0.98182511	0.17593649	-0.71684773	1.0361227	0.049954081	-0.56059958	1.4344909	-0.11576269	-0.57490481	1.4468344	0.21263424	-0.63072224	1.487955	0.047283003	-0.7208001	1.1089995	-0.17470501	-0.71924289	1.1157095	0.30444228	-0.60734613	0.86997992	-0.210022	-0.57748862	0.88019031	0.31937053
136	0.54	-0.22293544	0.08766508	-0.022289624	-0.66845654	0.039532925	0.061124821	-0.37677528	0.096830595	-0.059976066	-0.8176333	0.059055433	0.08585434	-0.35387295	0.11377744	0.036439843	-0.79569451	0.098803622	-0.0024918368	-0.43401162	0.043036126	-0.0072257141	-0.88192196	0.037785245	0.029220358	-0.41841093	0.5134154	-0.086264235	-0.68025836	0.49337175	0.16848124	-0.42693947	0.50468857	0.038933241	-0.69341732	0.48988523	0.040691807	-0.60188924	0.89123524	-0.13329242	-0.65598267	0.89693709	0.23689334	-0.53588779	0.97813331	-0.066774474	-0.54503727	0.98083839	0.17622174	-0.71128649	1.0348856	0.049801738	-0.55541539	1.433373	-0.11579911	-0.56978265	1.445674	0.21265785	-0.62554942	1.4868236	0.047282198	-0.71549966	1.1078819	-0.17471708	-0.71402159	1.1144953	0.30458706	-0.60256898	0.86866942	-0.2100085	-0.57195474	0.87920326	0.31968329
137	0.544	-0.20686015	0.090311088	-0.021118799	-0.66837828	0.039499232	0.061141175	-0.36105422	0.096723235	-0.058321011	-0.81753271	0.059126886	0.085440115	-0.33820059	0.11451074	0.038061	-0.79535994	0.098824002	-0.0028415369	-0.41709941	0.042180203	-0.0050059132	-0.88186255	0.037969349	0.028653507	-0.41250554	0.51186295	-0.086262717	-0.67689516	0.49296872	0.16855926	-0.42046388	0.50339375	0.039054119	-0.69125565	0.4895279	0.040814227	-0.59607526	0.88970966	-0.13307776	-0.65109231	0.89607757	0.23694479	-0.52997238	0.97672203	-0.066581714	-0.53962465	0.9797946	0.17650659	-0.70567817	1.0335922	0.049616905	-0.55020122	1.4321795	-0.11584803	-0.56461328	1.4444513	0.21267095	-0.62036434	1.4856394	0.047279361	-0.71019013	1.1066893	-0.17466808	-0.70877913	1.1132365	0.30470895	-0.59778223	0.86730508	-0.21002536	-0.56639928	0.87815347	0.31999544
138	0.548	-0.19107031	0.093174529	-0.019911525	-0.66826684	0.039452894	0.061149975	-0.34554873	0.096749238	-0.056621116	-0.81741509	0.05920111	0.084966391	-0.3227815	0.11542145	0.039742661	-0.79491859	0.098903581	-0.0031187728	-0.4004	0.041492826	-0.0027331668	-0.88188183	0.038135044	0.027974662	-0.4066345	0.51027516	-0.086314882	-0.67359798	0.49256589	0.16863235	-0.41358859	0.50206018	0.039377937	-0.68887941	0.48910527	0.041037277	-0.59024964	0.88810721	-0.13282946	-0.64618374	0.89516716	0.23700113	-0.52402279	0.97524549	-0.066380586	-0.53420337	0.97869952	0.17679243	-0.70007594	1.0322487	0.049487604	-0.54496052	1.4309144	-0.11590236	-0.55941499	1.4431668	0.21266623	-0.61516708	1.4844056	0.047271953	-0.70480986	1.1054138	-0.17449392	-0.70352	1.1119382	0.3048116	-0.59299181	0.86589071	-0.21008125	-0.5608339	0.87704385	0.32029973
139	0.552	-0.1755673	0.096225239	-0.018637577	-0.66811733	0.039377028	0.061122807	-0.33026655	0.096901193	-0.05488243	-0.8172792	0.059287581	0.084433329	-0.30766306	0.11647381	0.04146033	-0.79438226	0.099047123	-0.0033735203	-0.38390487	0.040951773	-0.00036605158	-0.88195933	0.038287422	0.027195319	-0.40071818	0.50865929	-0.0863964	-0.67028365	0.49215719	0.16868771	-0.40652471	0.50069502	0.039797322	-0.6864118	0.4885984	0.041259494	-0.58441016	0.88643608	-0.13254438	-0.64126322	0.89421253	0.23706482	-0.51803771	0.97370588	-0.066167871	-0.52876814	0.97755767	0.17707639	-0.69446563	1.0308548	0.049389228	-0.5397052	1.42959	-0.11595547	-0.55420729	1.4418266	0.21264245	-0.60995794	1.4831257	0.047261668	-0.69935672	1.1040631	-0.17421579	-0.69824876	1.1105979	0.30490735	-0.58819031	0.86443339	-0.21016881	-0.55527283	0.87587702	0.32059066
140	0.556	-0.16034044	0.099416843	-0.017294497	-0.6679373	0.039272161	0.061055715	-0.31522854	0.097180982	-0.053146818	-0.81713285	0.059392937	0.083843182	-0.29284701	0.11764773	0.043156387	-0.79379142	0.099231236	-0.0036776076	-0.36760818	0.040530178	0.0021114315	-0.88199477	0.038469948	0.026352789	-0.39472354	0.50701236	-0.086464482	-0.66683081	0.49173227	0.1687202	-0.39966332	0.49927838	0.040129846	-0.68398789	0.48800767	0.041352655	-0.57854045	0.8847071	-0.13223489	-0.63632886	0.89322082	0.23713195	-0.5120138	0.97210483	-0.065939205	-0.52330975	0.97637062	0.17735576	-0.68883439	1.0294124	0.049290472	-0.53444578	1.4282174	-0.11600922	-0.54899544	1.4404377	0.21260587	-0.60473675	1.481802	0.047255526	-0.69390097	1.1026662	-0.17396312	-0.69296457	1.1092105	0.30500725	-0.58334973	0.86293695	-0.21025638	-0.54971729	0.87465845	0.32087073
141	0.56	-0.14537392	0.10268695	-0.015907901	-0.6677528	0.039161147	0.060971756	-0.30046461	0.097584338	-0.051471838	-0.81698669	0.059518743	0.083208361	-0.27829976	0.11891754	0.044754001	-0.7931808	0.099422168	-0.0040639303	-0.35153474	0.040226668	0.0045820994	-0.88190396	0.038724809	0.025480617	-0.38866526	0.50532608	-0.086461957	-0.66315647	0.49128747	0.16876191	-0.39323593	0.49777817	0.040293119	-0.68157092	0.48738081	0.041330781	-0.57261707	0.88292825	-0.13191723	-0.63137943	0.89219622	0.23719542	-0.50595246	0.97044182	-0.065690536	-0.51782549	0.97513706	0.17763553	-0.68320055	1.0279293	0.049205227	-0.52919074	1.4268094	-0.11607907	-0.54375882	1.4390026	0.21256601	-0.59950191	1.4804373	0.047255026	-0.68852291	1.1012457	-0.17384982	-0.68765883	1.1077728	0.30511105	-0.57844538	0.8613972	-0.21031389	-0.54415902	0.87339491	0.32114857
